<?xml version="1.0" encoding="utf-8"?>
<!-- Generator: Adobe Illustrator 17.0.0, SVG Export Plug-In . SVG Version: 6.00 Build 0)  -->
<!DOCTYPE svg PUBLIC "-//W3C//DTD SVG 1.1//EN" "http://www.w3.org/Graphics/SVG/1.1/DTD/svg11.dtd">
<svg version="1.1" id="Layer_1" xmlns="http://www.w3.org/2000/svg" xmlns:xlink="http://www.w3.org/1999/xlink" x="0px" y="0px"
	 width="612.329px" height="387.808px" viewBox="-0.165 203.096 612.329 387.808"
	 enable-background="new -0.165 203.096 612.329 387.808" xml:space="preserve">
<g>
	<path fill="#333333" d="M3.316,205.499v383.191h605.039V205.499H3.316z M588.187,568.523H23.484V225.667h564.703V568.523z"/>
	<path fill="#333333" d="M104.156,548.355h403.359c33.926,0,60.504-26.578,60.504-60.504V306.339
		c0-33.926-26.578-60.504-60.504-60.504H104.156c-33.926,0-60.504,26.578-60.504,60.504v181.512
		C43.652,521.776,70.23,548.355,104.156,548.355z M477.263,427.347c16.682,0,30.252,13.565,30.252,30.237
		c0,16.687-13.57,30.267-30.252,30.267c-16.682,0-30.252-13.58-30.252-30.267C447.011,440.912,460.581,427.347,477.263,427.347z
		 M305.826,316.428c44.492,0,80.682,36.185,80.682,80.667s-36.19,80.672-80.682,80.672c-44.481,0-80.662-36.19-80.662-80.672
		S261.344,316.428,305.826,316.428z M134.408,306.339c16.682,0,30.252,13.565,30.252,30.237c0,16.687-13.57,30.267-30.252,30.267
		s-30.252-13.58-30.252-30.267C104.156,319.904,117.726,306.339,134.408,306.339z"/>
</g>
</svg>
